# xmcd
#
# Track frame offsets:
#	150
#	18163
#	30716
#	51302
#	67907
#	89532
#	115787
#	148384
#	182322
#	200662
#	232155
#	246369
#
# Disc length: 3687 seconds
#
# Revision: 0
# Processed by: cddbd v1.5.1PL0 Copyright (c) Steve Scherf et al.
# Submitted via: EasyCDDAExtractor 7.1.2.1
#
DISCID=aa0e650c
DTITLE=Carmel Dempsey - Worlds collide
DYEAR=1900
DGENRE=
TTITLE0=Black Is The Colour
TTITLE1=My Baba Just Cares For Me
TTITLE2=She Moved Trough The Fair
TTITLE3=The Star Of The County Down
TTITLE4=Nothing Compares To You
TTITLE5=Zombie
TTITLE6=Bad
TTITLE7=What's Up
TTITLE8=Fever
TTITLE9=7 Drunken Nights
TTITLE10=Irish Reels
TTITLE11=American Pie - Time To Say Goodbye
EXTD=
EXTT0=
EXTT1=
EXTT2=
EXTT3=
EXTT4=
EXTT5=
EXTT6=
EXTT7=
EXTT8=
EXTT9=
EXTT10=
EXTT11=
PLAYORDER=
